<svg xmlns="http://www.w3.org/2000/svg" viewBox="0 0 512 512" width="100%" height="100%">
  <rect x="24" y="24" width="464" height="464" fill="none" stroke="#000000" stroke-width="8" stroke-linecap="round" stroke-linejoin="round" rx="16" />

  <rect x="38" y="38" width="436" height="436" fill="none" stroke="#000000" stroke-width="2" rx="10" opacity="0.3" />

  <g transform="translate(40, 36)">
    <line x1="0" y1="0" x2="35" y2="0" stroke="#000000" stroke-width="6" stroke-linecap="round" />
    <line x1="15" y1="12" x2="45" y2="12" stroke="#000000" stroke-width="5" stroke-linecap="round" />
    <line x1="30" y1="24" x2="50" y2="24" stroke="#000000" stroke-width="4" stroke-linecap="round" />
  </g>

  <g transform="translate(472, 476) rotate(180)">
    <line x1="0" y1="0" x2="35" y2="0" stroke="#000000" stroke-width="6" stroke-linecap="round" />
    <line x1="15" y1="12" x2="45" y2="12" stroke="#000000" stroke-width="5" stroke-linecap="round" />
    <line x1="30" y1="24" x2="50" y2="24" stroke="#000000" stroke-width="4" stroke-linecap="round" />
  </g>

  <g transform="translate(468, 44)">
    <path d="M -20 -12 L 8 -12 L 8 16" fill="none" stroke="#000000" stroke-width="4" stroke-linecap="round" />
    <circle cx="-10" cy="-4" r="3" fill="#000000" />
  </g>

  <g transform="translate(44, 468) rotate(180)">
    <path d="M -20 -12 L 8 -12 L 8 16" fill="none" stroke="#000000" stroke-width="4" stroke-linecap="round" />
    <circle cx="-10" cy="-4" r="3" fill="#000000" />
  </g>
</svg>
